<svg xmlns="http://www.w3.org/2000/svg" xmlns:xlink="http://www.w3.org/1999/xlink" zoomAndPan="magnify" preserveAspectRatio="xMidYMid meet" version="1.0" viewBox="91.94 166.96 190.35 14.59"><defs><g/></defs><g fill="#000000" fill-opacity="1"><g transform="translate(91.153864, 181.254701)"><g><path d="M 9.265625 0.296875 C 7.367188 0.296875 5.835938 0.09375 4.671875 -0.3125 C 3.515625 -0.71875 2.632812 -1.273438 2.03125 -1.984375 C 1.425781 -2.703125 1.019531 -3.523438 0.8125 -4.453125 L 7.046875 -4.453125 C 7.515625 -3.785156 8.253906 -3.453125 9.265625 -3.453125 C 10.265625 -3.453125 11 -3.785156 11.46875 -4.453125 C 11.507812 -4.515625 11.53125 -4.570312 11.53125 -4.625 C 11.53125 -4.800781 11.296875 -4.929688 10.828125 -5.015625 C 10.359375 -5.109375 9.660156 -5.175781 8.734375 -5.21875 C 7.578125 -5.269531 6.351562 -5.394531 5.0625 -5.59375 C 2.207031 -6.039062 0.78125 -7.191406 0.78125 -9.046875 C 0.78125 -9.203125 0.789062 -9.367188 0.8125 -9.546875 C 1.019531 -10.472656 1.425781 -11.289062 2.03125 -12 C 2.632812 -12.71875 3.515625 -13.28125 4.671875 -13.6875 C 5.835938 -14.09375 7.367188 -14.296875 9.265625 -14.296875 C 11.148438 -14.296875 12.671875 -14.09375 13.828125 -13.6875 C 14.992188 -13.28125 15.878906 -12.71875 16.484375 -12 C 17.085938 -11.289062 17.492188 -10.472656 17.703125 -9.546875 L 11.46875 -9.546875 C 11 -10.203125 10.265625 -10.53125 9.265625 -10.53125 C 8.253906 -10.53125 7.515625 -10.203125 7.046875 -9.546875 C 7.015625 -9.492188 7 -9.441406 7 -9.390625 C 7 -9.234375 7.222656 -9.117188 7.671875 -9.046875 C 8.117188 -8.972656 8.773438 -8.910156 9.640625 -8.859375 C 10.515625 -8.804688 11.441406 -8.71875 12.421875 -8.59375 C 13.398438 -8.476562 14.316406 -8.273438 15.171875 -7.984375 C 16.035156 -7.703125 16.707031 -7.273438 17.1875 -6.703125 C 17.5625 -6.273438 17.75 -5.722656 17.75 -5.046875 C 17.75 -4.859375 17.734375 -4.660156 17.703125 -4.453125 C 17.492188 -3.523438 17.085938 -2.703125 16.484375 -1.984375 C 15.878906 -1.273438 14.992188 -0.71875 13.828125 -0.3125 C 12.671875 0.09375 11.148438 0.296875 9.265625 0.296875 Z M 9.265625 0.296875 "/></g></g></g><g fill="#000000" fill-opacity="1"><g transform="translate(109.681779, 181.254701)"><g><path d="M 10.59375 0.296875 C 7.132812 0.296875 4.585938 -0.414062 2.953125 -1.84375 C 1.503906 -3.101562 0.78125 -4.820312 0.78125 -7 C 0.78125 -9.175781 1.503906 -10.894531 2.953125 -12.15625 C 4.585938 -13.582031 7.132812 -14.296875 10.59375 -14.296875 C 14.0625 -14.296875 16.613281 -13.582031 18.25 -12.15625 C 19.6875 -10.894531 20.40625 -9.175781 20.40625 -7 C 20.40625 -4.820312 19.6875 -3.101562 18.25 -1.84375 C 16.613281 -0.414062 14.0625 0.296875 10.59375 0.296875 Z M 10.59375 -3.453125 C 12.007812 -3.453125 13.050781 -3.859375 13.71875 -4.671875 C 14.25 -5.335938 14.515625 -6.113281 14.515625 -7 C 14.515625 -7.894531 14.25 -8.664062 13.71875 -9.3125 C 13.050781 -10.132812 12.007812 -10.546875 10.59375 -10.546875 C 9.175781 -10.546875 8.132812 -10.132812 7.46875 -9.3125 C 6.925781 -8.664062 6.65625 -7.894531 6.65625 -7 C 6.65625 -6.113281 6.925781 -5.335938 7.46875 -4.671875 C 8.132812 -3.859375 9.175781 -3.453125 10.59375 -3.453125 Z M 10.59375 -3.453125 "/></g></g></g><g fill="#000000" fill-opacity="1"><g transform="translate(130.864906, 181.254701)"><g><path d="M 17.921875 0 L 1.5625 0 L 1.5625 -14.015625 L 7.4375 -14.015625 L 7.4375 -3.46875 L 17.921875 -3.46875 Z M 17.921875 0 "/></g></g></g><g fill="#000000" fill-opacity="1"><g transform="translate(149.168299, 181.254701)"><g><path d="M 18.4375 0 L 1.5625 0 L 1.5625 -14.015625 L 17.671875 -14.015625 L 17.671875 -10.546875 L 7.4375 -10.546875 L 7.4375 -8.34375 L 16.078125 -8.34375 L 16.078125 -5.65625 L 7.4375 -5.65625 L 7.4375 -3.46875 L 18.4375 -3.46875 Z M 18.4375 0 "/></g></g></g><g fill="#000000" fill-opacity="1"><g transform="translate(168.379541, 181.254701)"><g/></g></g><g fill="#000000" fill-opacity="1"><g transform="translate(173.33854, 181.254701)"><g><path d="M 20.703125 0 L 14.828125 0 L 14.828125 -5.65625 L 7.4375 -5.65625 L 7.4375 0 L 1.5625 0 L 1.5625 -14.015625 L 7.4375 -14.015625 L 7.4375 -8.34375 L 14.828125 -8.34375 L 14.828125 -14.015625 L 20.703125 -14.015625 Z M 20.703125 0 "/></g></g></g><g fill="#000000" fill-opacity="1"><g transform="translate(195.595466, 181.254701)"><g><path d="M 23.53125 0 L 17.578125 0 L 16.265625 -2.296875 L 7.421875 -2.296875 L 6.109375 0 L 0.140625 0 L 9.109375 -14 L 14.578125 -14 Z M 14.28125 -5.765625 L 11.84375 -10.015625 L 9.40625 -5.765625 Z M 14.28125 -5.765625 "/></g></g></g><g fill="#000000" fill-opacity="1"><g transform="translate(219.267854, 181.254701)"><g><path d="M 13.453125 0 L 8 0 L 0.140625 -14 L 6.109375 -14 L 10.734375 -4 L 15.359375 -14 L 21.3125 -14 Z M 13.453125 0 "/></g></g></g><g fill="#000000" fill-opacity="1"><g transform="translate(240.71455, 181.254701)"><g><path d="M 18.4375 0 L 1.5625 0 L 1.5625 -14.015625 L 17.671875 -14.015625 L 17.671875 -10.546875 L 7.4375 -10.546875 L 7.4375 -8.34375 L 16.078125 -8.34375 L 16.078125 -5.65625 L 7.4375 -5.65625 L 7.4375 -3.46875 L 18.4375 -3.46875 Z M 18.4375 0 "/></g></g></g><g fill="#000000" fill-opacity="1"><g transform="translate(259.925791, 181.254701)"><g><path d="M 22.359375 0 L 15.359375 0 L 7.4375 -9.484375 L 7.4375 0 L 1.5625 0 L 1.5625 -14.015625 L 8.5625 -14.015625 L 16.46875 -4.578125 L 16.46875 -14.015625 L 22.359375 -14.015625 Z M 22.359375 0 "/></g></g></g></svg>